<svg width="72" height="22" viewBox="0 0 72 22" fill="none" xmlns="http://www.w3.org/2000/svg">
<path d="M0 10.5833C0 4.73832 4.73832 0 10.5833 0V0C16.4283 0 21.1667 4.73832 21.1667 10.5833V10.5833C21.1667 16.4283 16.4283 21.1667 10.5833 21.1667V21.1667C4.73832 21.1667 0 16.4283 0 10.5833V10.5833Z" fill="#2D3436"/>
<path d="M5.98301 7.10709C6.20082 6.49045 5.74879 5.73542 4.98895 5.42423C4.9711 6.01746 5.31138 6.57762 5.98301 7.10709Z" fill="white"/>
<path d="M7.59581 6.68752C7.41603 6.1701 6.98591 5.47624 6.37305 5.08335C6.46644 6.49507 6.55316 7.90664 7.54554 9.23593C7.40922 8.58167 7.77482 7.2043 7.59581 6.68752Z" fill="white"/>
<path d="M7.29346 9.81529C7.0011 8.83952 5.52508 6.56216 4.0835 6.78554C5.12849 7.75346 5.26462 9.26845 6.92939 9.78929C7.06893 9.83249 7.19177 9.82897 7.29346 9.81529Z" fill="white"/>
<path d="M8.22868 10.8062C7.43805 10.0619 6.00236 9.48082 5.14453 10.5934C6.28426 11.2678 7.38212 11.2764 8.44299 11.1863C8.42683 11.1153 8.38745 10.9563 8.22868 10.8062Z" fill="white"/>
<path d="M9.15737 8.94497C8.8086 8.29403 8.66245 7.76306 7.86918 6.80313C7.88434 8.33992 7.46406 9.90604 9.17248 11.2857C9.10825 10.5105 9.50613 9.5959 9.15737 8.94497Z" fill="white"/>
<path d="M9.3925 11.9755C8.5422 11.2986 7.40803 11.2925 6.54492 12.5952C7.58306 13.269 8.52104 12.948 9.3925 11.9755Z" fill="white"/>
<path d="M10.0411 12.3836C8.84734 12.1743 8.49378 13.8667 8.84403 14.5537C9.88351 14.5684 10.7696 13.9219 10.7689 13.0827C10.7695 12.8255 10.5894 12.656 10.4699 12.5755C10.3697 12.5074 10.2579 12.4226 10.0411 12.3836Z" fill="white"/>
<path d="M12.9353 11.1325C12.2943 11.941 11.7008 11.9724 11.6997 13.2479C13.1469 13.1455 13.4295 12.5279 13.1618 11.5079C13.0986 11.2616 12.9393 11.1358 12.9353 11.1325Z" fill="white"/>
<path d="M11.0955 13.6141C10.4451 14.0385 10.4066 15.4234 11.2731 16.0833C11.4066 15.929 11.5453 15.7953 11.6258 15.6757C11.7069 15.5568 11.7218 15.5127 11.7786 15.3669C11.8346 15.2204 11.9684 14.4474 11.8116 14.0451C11.681 13.7099 11.5946 13.6241 11.4343 13.4806C11.4343 13.4806 11.2566 13.5098 11.0955 13.6141Z" fill="white"/>
<path d="M9.00391 8.17872C9.00391 8.17872 9.58785 8.82983 9.55039 9.64043C9.51293 10.4515 9.47911 11.0047 9.90246 11.858C10.5244 11.0649 10.7996 10.5317 10.7276 10.1933C10.6557 9.85514 10.2943 8.79416 9.00391 8.17872Z" fill="white"/>
<path d="M12.1708 11.2449C12.1735 10.6218 11.9459 10.5249 11.4232 9.6184C11.0246 11.1075 10.012 11.1065 11.0533 12.7471C11.4062 12.1762 12.1674 11.9492 12.1708 11.2449Z" fill="white"/>
<path d="M12.1906 13.7419C13.6531 13.9997 15.4399 15.6589 17.0547 14.5178C17.139 14.3333 17.0228 13.9646 16.9123 14.0975C16.2662 14.8679 14.3156 14.5945 12.4479 13.4693C12.2548 13.3552 11.8653 13.6621 12.1906 13.7419Z" fill="white"/>
<path d="M25.9149 14.457V6.51947H29.1806C29.6795 6.51947 30.118 6.62152 30.496 6.82563C30.8815 7.02218 31.1801 7.30188 31.3918 7.66474C31.611 8.0276 31.7206 8.45849 31.7206 8.95742V9.11617C31.7206 9.60754 31.6072 10.0384 31.3804 10.4088C31.1612 10.7717 30.8588 11.0552 30.4733 11.2593C30.0953 11.4558 29.6644 11.5541 29.1806 11.5541H27.4117V14.457H25.9149ZM27.4117 10.1934H29.0332C29.3885 10.1934 29.6758 10.0951 29.895 9.89858C30.1142 9.70203 30.2238 9.43367 30.2238 9.09349V8.9801C30.2238 8.63992 30.1142 8.37155 29.895 8.17501C29.6758 7.97846 29.3885 7.88018 29.0332 7.88018H27.4117V10.1934ZM35.389 14.6157C34.8448 14.6157 34.3496 14.4948 33.9036 14.2529C33.4651 14.0034 33.1136 13.6443 32.849 13.1756C32.592 12.6994 32.4635 12.1211 32.4635 11.4407V9.53572C32.4635 8.51518 32.7508 7.73277 33.3253 7.18849C33.8998 6.63664 34.6785 6.36072 35.6612 6.36072C36.6364 6.36072 37.3885 6.62152 37.9177 7.14313C38.4544 7.65718 38.7228 8.35643 38.7228 9.2409V9.28626H37.2487V9.19554C37.2487 8.91584 37.1882 8.6626 37.0673 8.43581C36.9539 8.20902 36.78 8.03138 36.5457 7.90286C36.3113 7.76679 36.0165 7.69876 35.6612 7.69876C35.132 7.69876 34.7162 7.86129 34.4139 8.18635C34.1115 8.5114 33.9603 8.95364 33.9603 9.51304V11.4634C33.9603 12.0152 34.1115 12.4613 34.4139 12.8014C34.7162 13.1341 35.1396 13.3004 35.6839 13.3004C36.2282 13.3004 36.625 13.1567 36.8745 12.8695C37.124 12.5822 37.2487 12.2194 37.2487 11.7809V11.6675H35.3664V10.3975H38.7228V14.457H37.3394V13.6972H37.1353C37.0824 13.8258 36.9954 13.9618 36.8745 14.1055C36.7611 14.2491 36.5872 14.37 36.3529 14.4683C36.1185 14.5666 35.7973 14.6157 35.389 14.6157ZM42.8051 14.457V6.51947H44.3019V13.0963H47.9305V14.457H42.8051ZM50.6291 14.6157C50.2285 14.6157 49.8694 14.5477 49.5519 14.4116C49.2344 14.268 48.9812 14.0639 48.7922 13.7993C48.6107 13.5271 48.52 13.1983 48.52 12.8128C48.52 12.4272 48.6107 12.106 48.7922 11.8489C48.9812 11.5844 49.2382 11.3878 49.5632 11.2593C49.8959 11.1232 50.2738 11.0552 50.6972 11.0552H52.2393V10.7377C52.2393 10.4731 52.1562 10.2577 51.9898 10.0913C51.8235 9.91748 51.559 9.83054 51.1961 9.83054C50.8408 9.83054 50.5762 9.9137 50.4023 10.08C50.2285 10.2388 50.1151 10.4466 50.0622 10.7037L48.7468 10.2614C48.8375 9.97417 48.9812 9.71337 49.1777 9.47902C49.3818 9.23712 49.6502 9.04435 49.9828 8.90072C50.323 8.74953 50.735 8.67393 51.2188 8.67393C51.9596 8.67393 52.5455 8.85914 52.9764 9.22956C53.4073 9.59998 53.6227 10.1367 53.6227 10.8397V12.9375C53.6227 13.1643 53.7285 13.2777 53.9402 13.2777H54.3938V14.457H53.4413C53.1616 14.457 52.931 14.3889 52.7496 14.2529C52.5682 14.1168 52.4774 13.9354 52.4774 13.7086V13.6972H52.262C52.2318 13.788 52.1637 13.9089 52.0579 14.0601C51.9521 14.2037 51.7857 14.3322 51.559 14.4456C51.3322 14.559 51.0222 14.6157 50.6291 14.6157ZM50.8786 13.4591C51.2793 13.4591 51.6043 13.3495 51.8538 13.1303C52.1108 12.9035 52.2393 12.6049 52.2393 12.2345V12.1211H50.7992C50.5346 12.1211 50.3268 12.1778 50.1756 12.2912C50.0244 12.4046 49.9488 12.5633 49.9488 12.7674C49.9488 12.9715 50.0282 13.1378 50.1869 13.2663C50.3457 13.3949 50.5762 13.4591 50.8786 13.4591ZM58.7041 14.6157C58.1976 14.6157 57.8083 14.5288 57.5362 14.3549C57.264 14.181 57.0637 13.9883 56.9352 13.7766H56.7311V14.457H55.325V6.51947H56.7538V9.47902H56.9579C57.041 9.34295 57.1506 9.21444 57.2867 9.09349C57.4303 8.97254 57.6156 8.87426 57.8423 8.79867C58.0767 8.71551 58.3639 8.67393 58.7041 8.67393C59.1577 8.67393 59.5772 8.78733 59.9628 9.01411C60.3483 9.23334 60.6583 9.5584 60.8926 9.98929C61.1269 10.4202 61.2441 10.9418 61.2441 11.5541V11.7355C61.2441 12.3479 61.1269 12.8695 60.8926 13.3004C60.6583 13.7313 60.3483 14.0601 59.9628 14.2869C59.5772 14.5061 59.1577 14.6157 58.7041 14.6157ZM58.2732 13.3684C58.7117 13.3684 59.0783 13.2285 59.3731 12.9488C59.668 12.6616 59.8154 12.2458 59.8154 11.7015V11.5881C59.8154 11.0438 59.668 10.6319 59.3731 10.3521C59.0859 10.0649 58.7192 9.92126 58.2732 9.92126C57.8348 9.92126 57.4681 10.0649 57.1733 10.3521C56.8785 10.6319 56.7311 11.0438 56.7311 11.5881V11.7015C56.7311 12.2458 56.8785 12.6616 57.1733 12.9488C57.4681 13.2285 57.8348 13.3684 58.2732 13.3684ZM64.7785 14.6157C64.0452 14.6157 63.4443 14.457 62.9756 14.1395C62.5069 13.822 62.2234 13.3684 62.1251 12.7788L63.4405 12.4386C63.4934 12.7032 63.5803 12.911 63.7013 13.0622C63.8298 13.2134 63.9848 13.323 64.1662 13.3911C64.3552 13.4516 64.5593 13.4818 64.7785 13.4818C65.1111 13.4818 65.3568 13.4251 65.5156 13.3117C65.6743 13.1908 65.7537 13.0433 65.7537 12.8695C65.7537 12.6956 65.6781 12.5633 65.5269 12.4726C65.3757 12.3743 65.1338 12.2949 64.8012 12.2345L64.4837 12.1778C64.0906 12.1022 63.7315 12.0001 63.4065 11.8716C63.0814 11.7355 62.8206 11.5503 62.6241 11.316C62.4275 11.0816 62.3292 10.7793 62.3292 10.4088C62.3292 9.84944 62.5333 9.42233 62.9416 9.12751C63.3498 8.82512 63.8865 8.67393 64.5517 8.67393C65.1792 8.67393 65.7008 8.81379 66.1166 9.09349C66.5323 9.37319 66.8045 9.73983 66.933 10.1934L65.6063 10.6016C65.5458 10.3144 65.4211 10.1102 65.2321 9.98929C65.0507 9.86834 64.8239 9.80786 64.5517 9.80786C64.2796 9.80786 64.0717 9.857 63.9281 9.95527C63.7844 10.046 63.7126 10.1745 63.7126 10.3408C63.7126 10.5222 63.7882 10.6583 63.9394 10.749C64.0906 10.8322 64.2947 10.8964 64.5517 10.9418L64.8692 10.9985C65.2926 11.0741 65.6743 11.1761 66.0145 11.3046C66.3622 11.4256 66.6344 11.6032 66.8309 11.8376C67.035 12.0644 67.1371 12.3743 67.1371 12.7674C67.1371 13.3571 66.9216 13.8144 66.4908 14.1395C66.0674 14.457 65.4967 14.6157 64.7785 14.6157Z" fill="#2D3436"/>
</svg>
