<svg width="22" height="22" viewBox="0 0 22 22" fill="none" xmlns="http://www.w3.org/2000/svg">
<path d="M18.3332 11.9166C18.3332 16.5 15.1248 18.7916 11.3115 20.1208C11.1118 20.1885 10.8949 20.1852 10.6973 20.1116C6.87484 18.7916 3.6665 16.5 3.6665 11.9166V5.49996C3.6665 5.25685 3.76308 5.02369 3.93499 4.85178C4.1069 4.67988 4.34006 4.5833 4.58317 4.5833C6.4165 4.5833 8.70817 3.4833 10.3032 2.08996C10.4974 1.92405 10.7444 1.83289 10.9998 1.83289C11.2553 1.83289 11.5023 1.92405 11.6965 2.08996C13.3007 3.49246 15.5832 4.5833 17.4165 4.5833C17.6596 4.5833 17.8928 4.67988 18.0647 4.85178C18.2366 5.02369 18.3332 5.25685 18.3332 5.49996V11.9166Z" stroke="#64A0B4" stroke-width="1.375" stroke-linecap="round" stroke-linejoin="round"/>
</svg>
